<svg xmlns="http://www.w3.org/2000/svg" viewBox="0 0 100.71 112.82"><defs><style>.cls-1{fill:#86c3d0;}.cls-2{fill:#fff;}.cls-3{font-size:12px;fill:#1d1d1b;font-family:MyriadPro-Regular, Myriad Pro;}.cls-4{letter-spacing:0em;}.cls-5{letter-spacing:0em;}.cls-6{letter-spacing:-0.04em;}.cls-7{letter-spacing:-0.01em;}.cls-8{letter-spacing:0em;}.cls-9{letter-spacing:-0.01em;}.cls-10{letter-spacing:0em;}.cls-11{letter-spacing:0em;}.cls-12{letter-spacing:-0.02em;}.cls-13{letter-spacing:-0.01em;}.cls-14{letter-spacing:0.01em;}</style></defs><g id="API"><path class="cls-1" d="M50.35,13.37a43,43,0,1,0,43.05,43A43,43,0,0,0,50.35,13.37Z"/><path class="cls-2" d="M50.35,79.11a.84.84,0,0,1-.46-.13,42,42,0,0,1-20.1-35.6v-.63a.87.87,0,0,1,.88-.87,7.5,7.5,0,0,0,7.66-7.3.87.87,0,0,1,.88-.88H61.5a.87.87,0,0,1,.87.88A7.5,7.5,0,0,0,70,41.88a.87.87,0,0,1,.87.87v.63a40.81,40.81,0,0,1-.87,8.4A41.89,41.89,0,0,1,57.91,73.46,44.2,44.2,0,0,1,50.82,79,.88.88,0,0,1,50.35,79.11ZM31.54,43.59A40.23,40.23,0,0,0,50.35,77.21a42.3,42.3,0,0,0,6.35-5A40.13,40.13,0,0,0,68.33,51.42a39.59,39.59,0,0,0,.84-7.83,9.26,9.26,0,0,1-8.5-8.14H40A9.27,9.27,0,0,1,31.54,43.59Z"/><path class="cls-2" d="M52.56,63.4H48.15a.88.88,0,0,1-.88-.88V57.23a4.47,4.47,0,0,1-1.44-3.29,4.52,4.52,0,0,1,9,0,4.46,4.46,0,0,1-1.43,3.29v5.29A.88.88,0,0,1,52.56,63.4ZM49,61.65h2.67V56.83a.9.9,0,0,1,.34-.7,2.73,2.73,0,0,0,1.1-2.19,2.78,2.78,0,0,0-5.55,0,2.73,2.73,0,0,0,1.1,2.19.9.9,0,0,1,.34.7Z"/></g><g id="HOSTING"><text class="cls-3" transform="translate(-6.37 -4.98)"><tspan class="cls-4">R</tspan><tspan x="6.5" y="0">eg</tspan><tspan class="cls-5" x="19.22" y="0">e</tspan><tspan x="25.2" y="0">x</tspan><tspan class="cls-6" x="30.76" y="0"> </tspan><tspan class="cls-7" x="32.81" y="0">T</tspan><tspan class="cls-8" x="38.69" y="0">h</tspan><tspan class="cls-9" x="45.35" y="0">r</tspan><tspan x="49.15" y="0">e</tspan><tspan class="cls-10" x="55.16" y="0">a</tspan><tspan class="cls-11" x="60.9" y="0">t </tspan><tspan class="cls-12" x="67.42" y="0">P</tspan><tspan class="cls-9" x="73.61" y="0">r</tspan><tspan x="77.41" y="0">o</tspan><tspan class="cls-13" x="84" y="0">t</tspan><tspan x="87.9" y="0">e</tspan><tspan class="cls-14" x="93.91" y="0">c</tspan><tspan class="cls-11" x="99.44" y="0">tion</tspan></text></g></svg>